<mxfile host="app.diagrams.net" agent="Mozilla/5.0 (Windows NT 10.0; Win64; x64) AppleWebKit/537.36 (KHTML, like Gecko) Chrome/136.0.0.0 Safari/537.36" version="27.0.9" pages="3">
  <diagram name="SignIn" id="N6GayVzrRstHOmk6WzIa">
    <mxGraphModel dx="786" dy="451" grid="1" gridSize="10" guides="1" tooltips="1" connect="1" arrows="1" fold="1" page="1" pageScale="1" pageWidth="850" pageHeight="1100" math="0" shadow="0">
      <root>
        <mxCell id="0" />
        <mxCell id="1" parent="0" />
        <mxCell id="EVhgLAGG6ibvL9TU4sFH-8" value="&lt;b&gt;:System&lt;/b&gt;" style="shape=umlLifeline;perimeter=lifelinePerimeter;whiteSpace=wrap;html=1;container=1;dropTarget=0;collapsible=0;recursiveResize=0;outlineConnect=0;portConstraint=eastwest;newEdgeStyle={&quot;curved&quot;:0,&quot;rounded&quot;:0};" parent="1" vertex="1">
          <mxGeometry x="495" y="90" width="100" height="300" as="geometry" />
        </mxCell>
        <mxCell id="EVhgLAGG6ibvL9TU4sFH-6" value="" style="html=1;points=[[0,0,0,0,5],[0,1,0,0,-5],[1,0,0,0,5],[1,1,0,0,-5]];perimeter=orthogonalPerimeter;outlineConnect=0;targetShapes=umlLifeline;portConstraint=eastwest;newEdgeStyle={&quot;curved&quot;:0,&quot;rounded&quot;:0};" parent="1" vertex="1">
          <mxGeometry x="540" y="210" width="10" height="80" as="geometry" />
        </mxCell>
        <mxCell id="EVhgLAGG6ibvL9TU4sFH-7" value="" style="shape=umlLifeline;perimeter=lifelinePerimeter;whiteSpace=wrap;html=1;container=0;dropTarget=0;collapsible=0;recursiveResize=0;outlineConnect=0;portConstraint=eastwest;newEdgeStyle={&quot;curved&quot;:0,&quot;rounded&quot;:0};participant=umlActor;" parent="1" vertex="1">
          <mxGeometry x="230" y="90" width="20" height="300" as="geometry" />
        </mxCell>
        <mxCell id="EVhgLAGG6ibvL9TU4sFH-10" value="SignIn(email, password)" style="html=1;verticalAlign=bottom;endArrow=block;curved=0;rounded=0;" parent="1" source="EVhgLAGG6ibvL9TU4sFH-3" edge="1">
          <mxGeometry width="80" relative="1" as="geometry">
            <mxPoint x="250" y="220" as="sourcePoint" />
            <mxPoint x="540" y="220" as="targetPoint" />
          </mxGeometry>
        </mxCell>
        <mxCell id="EVhgLAGG6ibvL9TU4sFH-11" value="Home Screen" style="html=1;verticalAlign=bottom;endArrow=open;dashed=1;endSize=8;curved=0;rounded=0;" parent="1" source="EVhgLAGG6ibvL9TU4sFH-6" edge="1">
          <mxGeometry relative="1" as="geometry">
            <mxPoint x="330" y="270" as="sourcePoint" />
            <mxPoint x="250" y="270" as="targetPoint" />
          </mxGeometry>
        </mxCell>
        <mxCell id="EVhgLAGG6ibvL9TU4sFH-12" value="&lt;b&gt;User&amp;nbsp;&lt;/b&gt;&lt;div&gt;&lt;b&gt;(Doctor / Mother)&lt;/b&gt;&lt;/div&gt;" style="text;html=1;align=center;verticalAlign=middle;resizable=0;points=[];autosize=1;strokeColor=none;fillColor=none;" parent="1" vertex="1">
          <mxGeometry x="180" y="50" width="120" height="40" as="geometry" />
        </mxCell>
        <mxCell id="EVhgLAGG6ibvL9TU4sFH-3" value="" style="html=1;points=[[0,0,0,0,5],[0,1,0,0,-5],[1,0,0,0,5],[1,1,0,0,-5]];perimeter=orthogonalPerimeter;outlineConnect=0;targetShapes=umlLifeline;portConstraint=eastwest;newEdgeStyle={&quot;curved&quot;:0,&quot;rounded&quot;:0};" parent="1" vertex="1">
          <mxGeometry x="235" y="210" width="10" height="80" as="geometry" />
        </mxCell>
      </root>
    </mxGraphModel>
  </diagram>
  <diagram id="Yyx0o5TSY3xgZ4pMwKbJ" name="SignUp">
    <mxGraphModel dx="786" dy="451" grid="1" gridSize="10" guides="1" tooltips="1" connect="1" arrows="1" fold="1" page="1" pageScale="1" pageWidth="850" pageHeight="1100" math="0" shadow="0">
      <root>
        <mxCell id="0" />
        <mxCell id="1" parent="0" />
        <mxCell id="LHX_hr5OwsLQoqtaQr-F-1" value="&lt;b&gt;:System&lt;/b&gt;" style="shape=umlLifeline;perimeter=lifelinePerimeter;whiteSpace=wrap;html=1;container=1;dropTarget=0;collapsible=0;recursiveResize=0;outlineConnect=0;portConstraint=eastwest;newEdgeStyle={&quot;curved&quot;:0,&quot;rounded&quot;:0};" vertex="1" parent="1">
          <mxGeometry x="505" y="490" width="100" height="300" as="geometry" />
        </mxCell>
        <mxCell id="LHX_hr5OwsLQoqtaQr-F-2" value="" style="html=1;points=[[0,0,0,0,5],[0,1,0,0,-5],[1,0,0,0,5],[1,1,0,0,-5]];perimeter=orthogonalPerimeter;outlineConnect=0;targetShapes=umlLifeline;portConstraint=eastwest;newEdgeStyle={&quot;curved&quot;:0,&quot;rounded&quot;:0};" vertex="1" parent="1">
          <mxGeometry x="550" y="610" width="10" height="80" as="geometry" />
        </mxCell>
        <mxCell id="LHX_hr5OwsLQoqtaQr-F-3" value="" style="shape=umlLifeline;perimeter=lifelinePerimeter;whiteSpace=wrap;html=1;container=0;dropTarget=0;collapsible=0;recursiveResize=0;outlineConnect=0;portConstraint=eastwest;newEdgeStyle={&quot;curved&quot;:0,&quot;rounded&quot;:0};participant=umlActor;" vertex="1" parent="1">
          <mxGeometry x="240" y="490" width="20" height="300" as="geometry" />
        </mxCell>
        <mxCell id="LHX_hr5OwsLQoqtaQr-F-4" value="SignIn(email, password, confirmPassword)" style="html=1;verticalAlign=bottom;endArrow=block;curved=0;rounded=0;" edge="1" parent="1" source="LHX_hr5OwsLQoqtaQr-F-7">
          <mxGeometry width="80" relative="1" as="geometry">
            <mxPoint x="260" y="620" as="sourcePoint" />
            <mxPoint x="550" y="620" as="targetPoint" />
          </mxGeometry>
        </mxCell>
        <mxCell id="LHX_hr5OwsLQoqtaQr-F-5" value="Sign in Screen" style="html=1;verticalAlign=bottom;endArrow=open;dashed=1;endSize=8;curved=0;rounded=0;" edge="1" parent="1" source="LHX_hr5OwsLQoqtaQr-F-2">
          <mxGeometry relative="1" as="geometry">
            <mxPoint x="340" y="670" as="sourcePoint" />
            <mxPoint x="260" y="670" as="targetPoint" />
          </mxGeometry>
        </mxCell>
        <mxCell id="LHX_hr5OwsLQoqtaQr-F-6" value="&lt;b&gt;User&amp;nbsp;&lt;/b&gt;&lt;div&gt;&lt;b&gt;(Doctor / Mother)&lt;/b&gt;&lt;/div&gt;" style="text;html=1;align=center;verticalAlign=middle;resizable=0;points=[];autosize=1;strokeColor=none;fillColor=none;" vertex="1" parent="1">
          <mxGeometry x="190" y="450" width="120" height="40" as="geometry" />
        </mxCell>
        <mxCell id="LHX_hr5OwsLQoqtaQr-F-7" value="" style="html=1;points=[[0,0,0,0,5],[0,1,0,0,-5],[1,0,0,0,5],[1,1,0,0,-5]];perimeter=orthogonalPerimeter;outlineConnect=0;targetShapes=umlLifeline;portConstraint=eastwest;newEdgeStyle={&quot;curved&quot;:0,&quot;rounded&quot;:0};" vertex="1" parent="1">
          <mxGeometry x="245" y="610" width="10" height="80" as="geometry" />
        </mxCell>
      </root>
    </mxGraphModel>
  </diagram>
  <diagram id="nSgAt2Y5GcSwiUJ2lX43" name="Pair Wrist Band">
    <mxGraphModel dx="786" dy="451" grid="1" gridSize="10" guides="1" tooltips="1" connect="1" arrows="1" fold="1" page="1" pageScale="1" pageWidth="850" pageHeight="1100" math="0" shadow="0">
      <root>
        <mxCell id="0" />
        <mxCell id="1" parent="0" />
        <mxCell id="EY9uETwzX0IC2XWFd5OE-1" value="&lt;b&gt;:System&lt;/b&gt;" style="shape=umlLifeline;perimeter=lifelinePerimeter;whiteSpace=wrap;html=1;container=1;dropTarget=0;collapsible=0;recursiveResize=0;outlineConnect=0;portConstraint=eastwest;newEdgeStyle={&quot;curved&quot;:0,&quot;rounded&quot;:0};" vertex="1" parent="1">
          <mxGeometry x="545" y="210" width="100" height="430" as="geometry" />
        </mxCell>
        <mxCell id="EY9uETwzX0IC2XWFd5OE-16" value="" style="html=1;points=[[0,0,0,0,5],[0,1,0,0,-5],[1,0,0,0,5],[1,1,0,0,-5]];perimeter=orthogonalPerimeter;outlineConnect=0;targetShapes=umlLifeline;portConstraint=eastwest;newEdgeStyle={&quot;curved&quot;:0,&quot;rounded&quot;:0};" vertex="1" parent="EY9uETwzX0IC2XWFd5OE-1">
          <mxGeometry x="45" y="230" width="10" height="80" as="geometry" />
        </mxCell>
        <mxCell id="EY9uETwzX0IC2XWFd5OE-18" value="" style="html=1;points=[[0,0,0,0,5],[0,1,0,0,-5],[1,0,0,0,5],[1,1,0,0,-5]];perimeter=orthogonalPerimeter;outlineConnect=0;targetShapes=umlLifeline;portConstraint=eastwest;newEdgeStyle={&quot;curved&quot;:0,&quot;rounded&quot;:0};" vertex="1" parent="EY9uETwzX0IC2XWFd5OE-1">
          <mxGeometry x="45" y="330" width="10" height="80" as="geometry" />
        </mxCell>
        <mxCell id="EY9uETwzX0IC2XWFd5OE-19" value="" style="html=1;points=[[0,0,0,0,5],[0,1,0,0,-5],[1,0,0,0,5],[1,1,0,0,-5]];perimeter=orthogonalPerimeter;outlineConnect=0;targetShapes=umlLifeline;portConstraint=eastwest;newEdgeStyle={&quot;curved&quot;:0,&quot;rounded&quot;:0};" vertex="1" parent="EY9uETwzX0IC2XWFd5OE-1">
          <mxGeometry x="-260" y="330" width="10" height="80" as="geometry" />
        </mxCell>
        <mxCell id="EY9uETwzX0IC2XWFd5OE-20" value="connectWifi(wifiName, wifiPassword)" style="html=1;verticalAlign=bottom;endArrow=block;curved=0;rounded=0;" edge="1" parent="EY9uETwzX0IC2XWFd5OE-1">
          <mxGeometry width="80" relative="1" as="geometry">
            <mxPoint x="-250" y="340" as="sourcePoint" />
            <mxPoint x="45" y="340" as="targetPoint" />
          </mxGeometry>
        </mxCell>
        <mxCell id="EY9uETwzX0IC2XWFd5OE-21" value="connection with wrist band completed" style="html=1;verticalAlign=bottom;endArrow=open;dashed=1;endSize=8;curved=0;rounded=0;" edge="1" parent="EY9uETwzX0IC2XWFd5OE-1">
          <mxGeometry relative="1" as="geometry">
            <mxPoint x="45" y="390" as="sourcePoint" />
            <mxPoint x="-245" y="390" as="targetPoint" />
          </mxGeometry>
        </mxCell>
        <mxCell id="EY9uETwzX0IC2XWFd5OE-2" value="" style="html=1;points=[[0,0,0,0,5],[0,1,0,0,-5],[1,0,0,0,5],[1,1,0,0,-5]];perimeter=orthogonalPerimeter;outlineConnect=0;targetShapes=umlLifeline;portConstraint=eastwest;newEdgeStyle={&quot;curved&quot;:0,&quot;rounded&quot;:0};" vertex="1" parent="1">
          <mxGeometry x="590" y="330" width="10" height="80" as="geometry" />
        </mxCell>
        <mxCell id="EY9uETwzX0IC2XWFd5OE-3" value="" style="shape=umlLifeline;perimeter=lifelinePerimeter;whiteSpace=wrap;html=1;container=0;dropTarget=0;collapsible=0;recursiveResize=0;outlineConnect=0;portConstraint=eastwest;newEdgeStyle={&quot;curved&quot;:0,&quot;rounded&quot;:0};participant=umlActor;" vertex="1" parent="1">
          <mxGeometry x="280" y="220" width="20" height="420" as="geometry" />
        </mxCell>
        <mxCell id="EY9uETwzX0IC2XWFd5OE-15" value="" style="html=1;points=[[0,0,0,0,5],[0,1,0,0,-5],[1,0,0,0,5],[1,1,0,0,-5]];perimeter=orthogonalPerimeter;outlineConnect=0;targetShapes=umlLifeline;portConstraint=eastwest;newEdgeStyle={&quot;curved&quot;:0,&quot;rounded&quot;:0};" vertex="1" parent="EY9uETwzX0IC2XWFd5OE-3">
          <mxGeometry x="5" y="220" width="10" height="80" as="geometry" />
        </mxCell>
        <mxCell id="EY9uETwzX0IC2XWFd5OE-4" value="open app" style="html=1;verticalAlign=bottom;endArrow=block;curved=0;rounded=0;" edge="1" parent="1" source="EY9uETwzX0IC2XWFd5OE-7">
          <mxGeometry width="80" relative="1" as="geometry">
            <mxPoint x="300" y="340" as="sourcePoint" />
            <mxPoint x="590" y="340" as="targetPoint" />
          </mxGeometry>
        </mxCell>
        <mxCell id="EY9uETwzX0IC2XWFd5OE-5" value="displays Pairing Screen (Bluetooth Device)" style="html=1;verticalAlign=bottom;endArrow=open;dashed=1;endSize=8;curved=0;rounded=0;" edge="1" parent="1">
          <mxGeometry relative="1" as="geometry">
            <mxPoint x="585" y="394.66" as="sourcePoint" />
            <mxPoint x="295" y="394.66" as="targetPoint" />
          </mxGeometry>
        </mxCell>
        <mxCell id="EY9uETwzX0IC2XWFd5OE-6" value="&lt;div&gt;&lt;b&gt;Mother&lt;/b&gt;&lt;/div&gt;" style="text;html=1;align=center;verticalAlign=middle;resizable=0;points=[];autosize=1;strokeColor=none;fillColor=none;" vertex="1" parent="1">
          <mxGeometry x="260" y="175" width="60" height="30" as="geometry" />
        </mxCell>
        <mxCell id="EY9uETwzX0IC2XWFd5OE-7" value="" style="html=1;points=[[0,0,0,0,5],[0,1,0,0,-5],[1,0,0,0,5],[1,1,0,0,-5]];perimeter=orthogonalPerimeter;outlineConnect=0;targetShapes=umlLifeline;portConstraint=eastwest;newEdgeStyle={&quot;curved&quot;:0,&quot;rounded&quot;:0};" vertex="1" parent="1">
          <mxGeometry x="285" y="330" width="10" height="80" as="geometry" />
        </mxCell>
        <mxCell id="EY9uETwzX0IC2XWFd5OE-13" value="connectBluetooth(bluetoothDevice)" style="html=1;verticalAlign=bottom;endArrow=block;curved=0;rounded=0;" edge="1" parent="1">
          <mxGeometry width="80" relative="1" as="geometry">
            <mxPoint x="295" y="450" as="sourcePoint" />
            <mxPoint x="590" y="450" as="targetPoint" />
          </mxGeometry>
        </mxCell>
        <mxCell id="EY9uETwzX0IC2XWFd5OE-17" value="wifi connectivity screen" style="html=1;verticalAlign=bottom;endArrow=open;dashed=1;endSize=8;curved=0;rounded=0;" edge="1" parent="1">
          <mxGeometry relative="1" as="geometry">
            <mxPoint x="590" y="500" as="sourcePoint" />
            <mxPoint x="300" y="500" as="targetPoint" />
          </mxGeometry>
        </mxCell>
      </root>
    </mxGraphModel>
  </diagram>
</mxfile>
